<!--<svg class="h-12 w-12" fill="none" xmlns="http://www.w3.org/2000/svg">-->
<!--    <rect width="28" height="28" rx="2" class="fill-current text-yellow-600" />-->
<!--    <path class="fill-current text-white dark:text-black" d="M8.79 6.896A1.895 1.895 0 115 6.894a1.895 1.895 0 013.79.002zm.057 3.297h-3.79v11.864h3.79V10.193zm5.988 0h-3.77v11.864h3.732V15.83c0-3.468 4.52-3.79 4.52 0v6.226h3.743v-7.514c0-5.847-6.69-5.629-8.262-2.758l.037-1.592z" />-->
<!--</svg>-->
<svg width="28" height="28" viewBox="0 0 28 28" fill="none" xmlns="http://www.w3.org/2000/svg">
    <rect width="28" height="28" rx="2" fill="#FFB22A"/>
    <path d="M6 5H22C22.2652 5 22.5196 5.10536 22.7071 5.29289C22.8946 5.48043 23 5.73478 23 6V22C23 22.2652 22.8946 22.5196 22.7071 22.7071C22.5196 22.8946 22.2652 23 22 23H6C5.73478 23 5.48043 22.8946 5.29289 22.7071C5.10536 22.5196 5 22.2652 5 22V6C5 5.73478 5.10536 5.48043 5.29289 5.29289C5.48043 5.10536 5.73478 5 6 5ZM7 7V21H21V7H7ZM19.3 17.94L20.255 18.894V18.944H15.334V18.894L16.338 17.94C16.438 17.84 16.488 17.74 16.488 17.589V11.664C16.488 11.412 16.488 11.061 16.539 10.76L13.225 19.045H13.175L9.76 11.412C9.71 11.212 9.66 11.212 9.61 11.112V16.132C9.559 16.484 9.61 16.785 9.76 17.087L11.116 18.894V18.944H7.5V18.894L8.856 17.036C9.006 16.736 9.056 16.384 9.006 16.082V10.56C9.006 10.309 8.956 10.007 8.756 9.807L7.851 8.55V8.5H11.366L14.278 14.978L16.84 8.5H20.255V8.55L19.301 9.655C19.201 9.755 19.151 9.906 19.151 10.006V17.639C19.151 17.739 19.201 17.89 19.301 17.94H19.3Z" fill="#222222"/>
</svg>
