<svg width="58" height="37" viewBox="0 0 58 37" fill="none" xmlns="http://www.w3.org/2000/svg">
    <path d="M0 0.510537C0 0.228592 0.228562 3.03779e-05 0.510507 3.03779e-05H8.67862C8.96056 3.03779e-05 9.18913 0.228592 9.18913 0.510537V27.5674C9.18913 27.8493 8.96056 28.0779 8.67862 28.0779H0.510507C0.228562 28.0779 0 27.8493 0 27.5674V0.510537Z" fill="#FFB22A"/>
    <path d="M8.64032 14.293C8.46173 14.0752 8.49332 13.7539 8.71092 13.575L15.0195 8.38894C15.238 8.20936 15.5608 8.24158 15.7394 8.4608L38.1197 35.9235C38.3915 36.257 38.1542 36.7565 37.7239 36.7565L27.2984 36.7565C27.1455 36.7565 27.0006 36.688 26.9036 36.5697L8.64032 14.293Z" fill="#FFB22A"/>
    <path d="M15.8035 0.34791C15.8974 0.201497 16.0594 0.11295 16.2333 0.11295L26.4905 0.11292C26.8974 0.112919 27.1408 0.565699 26.9163 0.905077L9.15071 27.7621C8.99648 27.9952 8.68344 28.0609 8.44845 27.9096L1.57582 23.482C1.33916 23.3295 1.27059 23.0143 1.42254 22.7773L15.8035 0.34791Z" fill="#FFB22A"/>
    <path d="M43.4331 21.0859C40.0503 21.0859 37.9079 18.5676 37.9079 13.9821V13.6814C37.9079 9.09586 40.0503 6.65276 43.3579 6.65276C46.7407 6.65276 48.9207 9.13345 48.9207 13.6814V13.9821C48.9207 18.4548 46.7783 21.0859 43.4331 21.0859ZM43.2076 27.7762C52.0404 27.7762 57.791 22.1759 57.791 13.7941V13.4935C57.791 4.99897 51.6269 0 43.3579 0C35.3145 0 29 5.41241 29 13.719V14.0197C29 22.1759 34.4124 27.7762 43.2076 27.7762Z" fill="#0C377D"/>
</svg>
