<svg width="28" height="28" fill="none" xmlns="http://www.w3.org/2000/svg"><rect width="28" height="28" rx="2" fill="#FFB22A"/><path d="M6 5h16a1 1 0 011 1v16a1 1 0 01-1 1H6a1 1 0 01-1-1V6a1 1 0 011-1zm1 2v14h14V7H7zm12.3 10.94l.955.954v.05h-4.921v-.05l1.004-.954c.1-.1.15-.2.15-.351v-5.925c0-.252 0-.603.051-.904l-3.314 8.285h-.05L9.76 11.412c-.05-.2-.1-.2-.15-.3v5.02c-.051.352 0 .653.15.955l1.356 1.807v.05H7.5v-.05l1.356-1.858c.15-.3.2-.652.15-.954V10.56c0-.251-.05-.553-.25-.753L7.851 8.55V8.5h3.515l2.912 6.478L16.84 8.5h3.415v.05l-.954 1.105c-.1.1-.15.251-.15.351v7.633c0 .1.05.251.15.301H19.3z" fill="#fff"/></svg>
