<svg class="h-12 w-12" fill="none" xmlns="http://www.w3.org/2000/svg">
    <rect width="28" height="28" rx="2" class="fill-current text-yellow-600" />
    <path class="fill-current text-white dark:text-black" d="M23 8.55a7.402 7.402 0 01-2.122.581 3.705 3.705 0 001.625-2.043 7.38 7.38 0 01-2.346.896 3.693 3.693 0 00-6.292 3.368 10.484 10.484 0 01-7.612-3.859 3.693 3.693 0 001.143 4.931 3.68 3.68 0 01-1.673-.462v.046a3.696 3.696 0 002.963 3.622 3.717 3.717 0 01-1.67.063 3.695 3.695 0 003.45 2.566A7.412 7.412 0 015 19.788a10.447 10.447 0 005.66 1.66c6.794 0 10.509-5.628 10.509-10.508 0-.16-.005-.32-.012-.477A7.501 7.501 0 0023 8.551z" />
</svg>
